<svg width="85" height="33" viewBox="0 0 85 33" fill="none" xmlns="http://www.w3.org/2000/svg">
<path fill-rule="evenodd" clip-rule="evenodd" d="M19.375 19.9892C25.5637 13.2168 35.5792 13.3878 40.7947 12.02C40.3355 13.3213 40.4995 12.7039 38.7938 13.6822C30.0357 18.7069 32.1022 20.6256 19.375 19.9892ZM84.2136 16.1518V17.8521C84.2136 18.7829 84.3885 19.5238 83.1748 19.8277C75.1712 21.8509 67.0363 23.8266 65.2759 25.0139C62.7173 26.7521 64.4558 26.4957 60.2791 27.36C58.1579 27.7969 56.1788 28.3479 53.8608 28.4998C54.0904 25.9542 56.5068 12.9888 45.2667 15.9714C38.4111 17.7856 37.6676 24.292 37.9081 31.7863C36.4976 32.5462 37.8753 32.0048 35.9619 32.4227C35.8963 32.4322 33.8954 32.7076 33.8188 32.7171L17.9645 32.9926C9.57817 33.1161 6.41825 31.6818 0 29.6017C0.973125 28.0059 3.69569 28.3004 3.8925 26.3722C4.19865 23.3707 -1.16994 22.4968 6.22144 16.0189C13.1098 9.98734 27.6302 9.5694 31.5445 7.98316C34.0156 6.97633 36.3883 5.50406 38.8922 4.33575C48.3063 -0.0810285 53.664 -0.432471 63.3624 0.29891C63.3515 0.327405 63.3296 0.346402 63.3187 0.374897C61.0116 4.15528 63.1984 1.13477 58.803 6.02648C53.6859 11.7161 60.1369 13.4828 65.5711 14.2521C70.8194 14.993 76.8222 14.8885 82.7593 14.9455C83.6122 14.955 84.2136 14.879 84.2136 16.1518ZM34.0156 8.90451C35.1309 6.29244 41.899 3.51889 45.6822 2.43606C53.2922 0.260916 53.4125 1.14427 61.5255 1.22976C60.7383 2.88249 58.5078 3.95582 57.141 5.15262C55.5665 6.5204 54.8995 7.29927 53.2048 8.9805L34.0156 8.90451Z" fill="white"/>
<path fill-rule="evenodd" clip-rule="evenodd" d="M48.0223 16.7124C48.1426 16.8169 48.2957 16.9594 48.3722 17.0259C52.7239 21.0057 54.1344 26.9802 48.0442 31.7485L46.0542 32.9643C55.0638 31.9859 56.2447 18.2512 48.0223 16.7124Z" fill="white"/>
<path fill-rule="evenodd" clip-rule="evenodd" d="M43.1567 29.2122C41.1886 24.1685 42.8287 23.8076 44.939 20.3787C39.6032 21.6894 39.1877 26.8756 43.1567 29.2122Z" fill="white"/>
</svg>
